# xmcd
#
# Track frame offsets:
# 150
# 10960
# 23522
# 36645
# 46382
# 60420
# 74757
# 86622
# 100155
# 110212
# 126197
# 138117
#
# Disc length: 2021 seconds
#
#
# Revision: 0
# Processed by: cddbd v1.5.2PL0 Copyright (c) Steve Scherf et al.
# Submitted via: FreeRIP 2.951 
#
DISCID=a607e30c
DTITLE=ZICO and   ZECA - DEIXE O MEU PINHO
DYEAR=1967
DGENRE=Sertanejo Raiz
TTITLE0=DEIXE O MEU PINHO
TTITLE1=VOU MUDAR DE APARTAMENTO
TTITLE2=DE QUE VALE ESTE ORGULHO
TTITLE3=SAUDADE DO NOSSO AMOR
TTITLE4=MAGÓA
TTITLE5=EU QUERIA TERMINAR CONTIGO
TTITLE6=PERDOA ESSA MULHER
TTITLE7=CAMINHOS DA VIDA
TTITLE8=ADEUS MORENA
TTITLE9=HOMEM SEM RUMO
TTITLE10=CASINHA  AMARELA
TTITLE11=LAMENTO DE UM POETA
EXTD=
EXTT0=
EXTT1=
EXTT2=
EXTT3=
EXTT4=
EXTT5=
EXTT6=
EXTT7=
EXTT8=
EXTT9=
EXTT10=
EXTT11=
PLAYORDER=
